<svg xmlns="http://www.w3.org/2000/svg" width="5.5in" height=".927in" viewBox="0 0 1650 278"><style>.style0{stroke: black;fill: #333333;}</style><path d="M1142 23v8c7.9 0 25 0 32-2l9.6 46c5.7 31.9 9.8 72.1 3.8 104-1.4 7.1-2.7 13.3-5.7 20-7.3 16.1-22.3 27.9-40.7 24.7-22.6-4-25.6-38.3-19.3-55.7 2.3-6.2 7.9-14.7 14.3-17.1 14.9-5.7 20.6 16.3 17.1 29.1-.9 3.2-3.2 8.2-6.3 9.8-5.3 2.5-8.9-6.4-7.2-10.7 1.5-3.9 4.9-4 8.4-4.1-.9-11.6-13.5-8.5-16.8-5.6-3.2 2.8-3.3 6.7-3.2 10.6.6 12.6 13.8 19 25 15 13.7-4.8 19.7-18.6 14.5-32-1.5-4.1-3.5-6.8-6.5-10-23.6-24.2-60.7 3.5-61 31-.1 7.3-.3 12 2.7 19 3.1 7.3 8 13 14.3 17.8 24 18.2 58.3 9.1 72.7-16.8 8.9-16.1 15.1-45.6 15.3-64v-47l-1-19-1-16-1-17v-15l18-1v-10l-31 5.7-47 2.3zm-991 165l3.5 16c2.4 12.6 6.9 31.3 0 43-8.2 13.9-27.3 22.9-35.8 6-1.2-2.4-1.5-4.4-1.7-7-.2-4.5.6-9.3 3.6-12.8 5.6-6.6 9.2-.2 9.4 5.8h-6c.2 1.5.2 3.2 1.2 4.4 2.5 3.3 15 2 13.6-8.4-1.4-10-12.4-12.5-20.8-10.5-11.1 2.7-19.6 17.7-14.9 28.5 6.4 14.8 30.7 18.8 43.9 11.9 11.8-6.3 18.9-19.8 19-32.9v-21l-.9-12-1.2-23-.9-12c0-6.4.7-15-1-21l22-2v-10l-25 3.8-24 1.2-12 1h-14v10l36-3c0 18.3-2.7 41-16.2 54.9-18.6 19.2-52.4 5.8-68.8-9.9-15.1-14.5-24.2-33.3-26.9-54v-27c.2-28 13-64.5 37.9-79.5 20.4-12.4 50.6-8.3 59.4 16.5 1.7 4.6 1.7 8.2 1.6 13-.1 10.6-5.9 24.8-18 25.9-7.6.6-17-6.6-15.6-14.9 1-5.5 5.7-8.7 10.4-4.6 2.8 2.5 3 5.1 3.2 8.6 15.1-3.9 9.8-22.7-4-23.9-14.4-1.2-21.3 16.1-17 27.9 4 11.1 12.5 13.1 23 13 14.8-.2 30.1-11.6 34.2-26 1-3.4.8-7.4.8-11-.1-10.4-6.1-19.1-14-25.5-8.7-7.2-19.7-11.4-31-11.5-15.6-.2-23.3-.4-38 6.5-31.6 14.8-55.6 60.1-56 94.5-.1 10-.7 20.2 1.7 30 6.6 28.2 27.7 48.2 53.3 60.2 7.4 3.5 19.8 6.7 28 6.8h15c17-.2 35.2-10.9 43-26zm769-106v9l27-7-2.2 30c-2 21-3.8 41.8-3.8 63 0 20.2 13.1 35.8 34 36 4.4.1 8.9.3 13-1.6 8.9-4 15.7-15.2 18.1-24.4 1.2-4.7 1.8-13.8-.8-18-7.6-12.1-30.5-16.7-37.8-2-1.8 3.5-2.2 9.6 0 12.9 3.8 5.2 14.4 7.4 18.6 1.9 2-2.7 1.9-5.7 1.9-8.8l-11 5c0-4.7.5-10.7 6-12.3 7.5-2.2 11.9 9.7 12 15.3.2 10.7-4.2 26.2-17 27-16.7.9-25.8-13.9-26-29v-9c0-15.4 8-49.9 10.9-67l2.8-16c.4-3 .3-6 2.7-8.3 2.3-2.1 8.5-3.3 11.6-4.1l30-4.6c-.1-2.5-.2-7.4-2.6-8.9-2.1-1.5-7.9.4-10.4.9l-30 8c2.1-7.1 2.9-19.4 3-27l1-14c-6.2.1-11.9 1.2-18 2.2-2 .4-5.7.7-7.1 2.4-1.7 2.3-.5 7.7 0 10.4l1.1 23c0 2.6.3 6.4-1.6 8.4-1.5 1.6-5.2 2.2-7.4 2.7l-18 3.9zm678 108c.8-3.3 1.7-7.8 0-10.9-2.9-5.1-12.4-5-17-2.7-6.9 3.5-9.9 10.2-10 17.6 0 2.8-.1 6.3.5 9 1.7 7.1 8.3 17.1 15.5 19.3 2.4.8 5.5.7 8 .7 6.5 0 10 .4 16-2.9 11-6 20.3-17.6 22.8-30.1.4-3.4.2-8.4 0-12 0-19.9-16.6-31.2-29.8-43.2-13.5-12.1-22.2-25.1-22-43.8.1-4.2.3-6.2 2.3-10 7.5-13.6 21.6-16.3 32.6-5 3 3.1 5.4 6.9 6.5 11 1.1 4.1.9 9.5-2.7 12.3-4.2 3.1-12.4.6-14.1-4.3-1.3-4.3 2.9-8 4.4-14-3.7 0-9.8-.8-12.4 2.3-4.6 5.5.2 24.9 13.4 25.7 12.8.7 22.7-9.5 23-22 .1-3.7.1-7.6-1.6-11-4.4-9.3-16.6-13.9-26.4-14-7-.1-13.4-.4-20 2.5-12.3 5.5-22.8 18.8-23 32.5-.1 12 .8 20.5 7.5 31 9.4 14.5 36.9 29.3 48.7 47 7.1 10.5 6.5 20.7-2.3 30-5.1 5.4-8.4 7.3-15.9 7-7.9-.4-17.9-5.1-22-12-2.8-4.7-1.9-8.2 2.1-11.8 1.3-1.3 2.9-2.5 4.9-2.6 3-.2 5.6 2.9 11 4.4zm-1246-101c3.9 1.2 4.1 1.4 6 5-2.2 0-4.9.1-7-.7-11.7-4.6-3-16.6 9-17.3 12.6-.6 18 10.2 13.6 21-9.2 22.9-33.5 32.7-33.5 62v11c2.5 15.9 14.3 30.3 27.9 38.1 17.6 10.1 39.3 7.6 55-4.8 4.9-3.8 9.4-8.6 12-14.3l3 33 28-9-1-7-20 5-2-64-1-15c-.1-10.9 1-42.7-1-51l15-3c-.1-2.2.2-5.3-2.3-6.3-2.1-.8-9.2 1.5-11.7 2.2-7.2 1.8-14.6 3.2-22 3.9-2.5.3-8.9-.1-10.7.8-2.5 1.2-2.2 4-2.3 6.4h15l3.9 25 6.2 44c.6 5.8 3.3 20.3 1 25.2-10.7 21.8-34.4 37.5-57.1 21.7-3.8-2.6-6.4-5.2-9.1-8.9-7.9-10.9-9-22-8.9-35 .3-22.5 21.7-42.5 22-64 .1-9.2.3-17-7.1-23.8-12.6-11.6-29.2.9-32.4 14.8-1.5 6.7-.7 15.2 5.5 19.3 7.5 4.9 18.1-.7 18.9-9.3 1-10.3-9.5-13.8-12.9-5zm928 26h-7c1.1-14 15.2-5.9 12.3 4-3.1 10.9-17.5 19.2-24.1 6-3.2-6.2-.3-21.6 2.3-28 1.7-4.2 4.3-8.7 7.6-11.8 7.2-6.7 22.6-10.5 30.9-3.8 7.4 6 9.9 19.4 10 28.6.2 15.2.1 23.3-5.4 38-1.3 3.4-3.6 10.1-6.8 12-1.8 1-14.1 2-16.8 2-12.7.1-23.3.4-33 10-2.5 2.6-4.8 5.4-5.7 9-.4 2.2-.4 8.7 0 11 .3 2.5 1.3 4.9 2.7 7 11.1 16.9 33.4 7.2 46-2v18h6c0-18 4.5-35 12.8-51 7.7-14.9 20-30.4 20.2-48 .2-15.4.1-29.2-12.1-40.8-10.4-9.9-26.5-10.6-38.9-4.4-13.5 6.8-28.3 24.2-31.5 39.2-.6 2.9-.5 6.1-.5 9 .2 13.5 8.5 18.3 21 18 12.9-.3 27.7-12.4 27-26-.9-14.5-21.9-11.4-25-9.8-2.4 1.2-4.3 3.3-5.3 5.8-1 2.8-1.1 8.3.9 10.7 2.5 3 10.2 4.3 12.4-2.7zm-817-24l1.6 3.9 6.4-.5 13-4.4 6.6 26 11.3 58 3 22c.2 2.3.3 6.7-.9 8.7-2.9 4.5-17.9 4.3-23 4.3v8c15.9-.1 35.3-6.3 50-12.2 14.8-6 15.5-6.4 14-14.8l-15 6.7-18 7.3-1.1-29-.9-13-1-14c-.2-17.4-4.4-21.3 4.3-38 4.4-8.6 11.3-18 20.7-21.4 11.5-4.3 30.5.3 31.9 14.4.9 8.5-3.6 17.2-10.9 21.5-6.2 3.7-15.1 3.7-18.8-3.5-2-3.8-.7-8.7 2.3-11.6 3.2-3 6.9-1.9 7.3 2.6l-.8 7c4.6-.5 9.1-1.6 9.9-7 1.2-9.1-7.4-12.4-14.9-12-6.1.4-14.3 6.2-16.6 12-.5 2-.5 5.9 0 8 1.9 13.6 17.3 16.7 28.6 12.9 13.6-4.6 20.9-15.9 21-29.9 0-5.8.3-10.4-1.9-16-5.9-14.6-22.8-21.4-37.1-14.7-12.1 5.7-23.9 21.5-26 34.7-2.9-10.2-.1-27.2 0-38l-16 10.5c-7.8 4.7-20.1 9.7-29 11.5zm113-14v7l20-1 7.8 33c3.6 17.1 8.2 50.9 8.2 68 0 4.2 1 18.6-1.6 21.3-2.3 2.2-13 3.4-16.4 3.7.1 2.2 0 5.3 2.4 6.4 2.2 1 9.9-.7 12.6-1.1 11.4-1.6 17.7-1.3 29-1.3v-8h-18v-62l1-21c0-3.2-.1-5.9.8-9 3.2-11.2 15.2-23.4 27.2-24 11-.4 17.9 5.5 24.2 14 3.9 5.3 6.9 11.6 8.3 18 1 4.8.5 10.2.5 15l-1.2 30c-.8 7.7-4.6 27.9-15.8 25.5-4.6-.9-8.9-7-5.4-11.2 2.1-2.5 5.5-2.3 8.4-2.3l-3 7c3-.1 5.3 0 7.6-2.3 3.3-3.5 5-15-6.6-15.7-10.3-.5-15 5-15 15 0 9.2 4.6 14.5 14 15 15.2.8 22.7-13.4 27-26 5.1-14.9 6-23.4 6.1-39v-25c2.5-7.7 12.8-21.8 20.9-23.6 16.1-3.7 27.7 9.4 33.7 22.6 5.4 12 5.3 21.3 5.3 34 0 15 .1 21.9-3 37-1.7 8.2-5.1 19.2-12 24.4-8.9 6.7-23.1-.6-19.3-10.4 2.4-6 8.9-5.5 10-2.7.6 1.9-1.9 5.8-2.7 7.7 12.6 2.6 16.3-20.1 2-21-3-.1-6.3.1-9 1.4-2.5 1.4-4.2 3.2-5.6 5.6-1.9 3.1-2.3 5.5-2.4 9-.1 3-.1 6.2 1 9 4 10.6 17.1 13.8 27 9.5 4.7-2.1 9.3-6.5 12.5-10.5 11.6-14.8 19.5-42.2 19.5-61v-19c-.2-14.7-6.1-32.3-18-41.5-8.8-6.8-25.4-10-36-6.4-10.7 3.7-22.9 18.1-26 28.9h-2c-3.5-11.8-15.1-19.7-27-21.8h-10c-14.3-.1-28.5 9.1-35 21.8-2.3-8.1.8-21 1-30l-18 4c-11.5 2.4-17.3 3-29 3zm762 0v7l20-1 7.8 33c3.6 17.1 8.2 50.9 8.2 68 0 4.2 1 18.6-1.6 21.3-2.3 2.2-13 3.4-16.4 3.7.1 2.2 0 5.3 2.4 6.4 2.2 1 9.9-.7 12.6-1.1 11.4-1.6 17.7-1.3 29-1.3v-8h-18v-62l1-21c0-3.2-.1-5.9.8-9 3.2-11.2 15.2-23.4 27.2-24 11-.4 17.9 5.5 24.2 14 4 5.3 6.9 11.6 8.3 18 1 4.8.5 10.2.5 15l-1.2 30c-.8 7.7-4.6 27.9-15.8 25.5-4.6-.9-8.9-7-5.4-11.2 2.1-2.5 5.5-2.3 8.4-2.3l-3 7c3-.1 5.3 0 7.6-2.3 3.3-3.5 5-15-6.6-15.7-10.3-.5-15 5-15 15 0 9.2 4.6 14.5 14 15 15.2.8 22.7-13.4 27-26 5.1-14.9 6-23.4 6.1-39v-25c2.5-7.7 12.8-21.8 20.9-23.6 16.1-3.7 27.7 9.4 33.7 22.6 5.4 12 5.3 21.3 5.3 34 0 15 .1 21.9-3 37-1.7 8.2-5.1 19.2-12 24.4-8.9 6.7-23.1-.6-19.3-10.4 2.4-6 9-5.5 10-2.7.6 1.9-1.9 5.8-2.7 7.7 12.6 2.6 16.3-20.1 2-21-3-.1-6.3.1-9 1.4-2.5 1.4-4.2 3.2-5.6 5.6-1.9 3.1-2.3 5.5-2.4 9-.1 3-.1 6.2 1 9 4 10.6 17.1 13.8 27 9.5 4.7-2.1 9.3-6.5 12.5-10.5 11.6-14.8 19.5-42.2 19.5-61v-19c-.2-14.7-6.1-32.3-18-41.5-8.8-6.8-25.4-10-36-6.4-10.7 3.7-22.9 18.1-26 28.9h-2c-3.5-11.8-15.2-19.7-27-21.8h-10c-14.3-.1-28.5 9.1-35 21.8-2.3-8.1.8-21 1-30l-18 4c-11.5 2.4-17.3 3-29 3zm-1081 33l-3-5c1.9 0 4.1 0 5.9.7 9.7 4.2-2.5 17.1-10.9 14.8-16.9-4.6-7.5-30.6 9-31.5 15.5-.8 27.4 13.6 32.3 27 8.4 22.9 6.2 49.4-7.2 70-6.1 9.5-15.1 18.7-27.1 19-20.2.5-33.3-16.2-39-34-7.9-25-5.7-54.5 11.9-75 6.9-7.9 15.6-14.3 26.1-16-1.2-6.5-4.9-5-10-3.3-8.2 2.6-16.2 7-23 12.3-14.5 11.3-28.8 30.9-29 50v11c.3 29 29.7 59.9 59 60h5c27.5 0 49.8-27 56.1-52 2.3-9.3 2-14.5 1.9-24-.2-20.7-17.9-43-37-49.9-12.7-4.6-25.3-2.9-35 6.9-2.8 2.9-5.4 6.1-6.9 10-1.3 3.7-1.1 8-1.1 12 .1 6.5 1.7 12.4 7 16.6 8.1 6.2 21.2 1.2 25.4-7.6 2.9-6 2.6-16.3-3.4-20.3-4.3-2.7-15.7-3.2-16.8 5.3-1.2 8.2 7.2 11.2 9.8 3zm621 68c-.3 2.9-.8 6.3-4.1 7.3-3.7 1.2-7.8-2.5-6.1-7.3 1.5-4.5 5.8-6 10.2-5.9 10.3.1 22.1 9.8 16.5 20.9-4 8.2-14.6 13.8-23.5 14-17.4.4-30.5-11.2-38.2-26-9.6-18.4-8.4-46.5-2.7-66 4.6-15.5 16.9-33.8 34.9-33 25 1.1 39.6 43.2 17 55.6-4.7 2.6-8.9 2.5-14 2.4-7.4-.1-18.8-3.1-23.6-9.1-4.6-5.7-1.6-15.1 2.7-16.7 3.1-1.2 6.1 1.8 6.4 4.8.3 4.2-4.8 5.8-3.8 8.8 1.2 3.5 8.1 2.1 10.3.6 6.6-4.5 7.8-16.2-3-19.6-11.9-3.7-25.7 2.7-26 16.2 0 2.7 0 5.6 1.2 8 4.6 9.2 18.4 11.9 27.8 12 13.2.2 24.3 1 36-6.6 16.4-10.5 21.2-31.7 6.8-46.2-6.6-6.7-18.4-13.5-27.8-15h-13c-29.3.1-57.9 36.7-58 64.8-.1 12.9-.6 18.6 4.5 31 7 17.5 26.1 34.8 44.5 39.5 7 1.8 11.9 1.6 19 1.5 10-.1 22.6-5.3 28-14 2.5-4 2.9-7.4 3-12 .1-10.8-2.7-19.9-14-24-6.8-2.5-17.7-1.3-22.8 4.1-6.3 6.8-6.2 21.1 2.8 25.7 4.5 2.3 11.2 1.2 14.3-3 2-2.8 2.7-9.6-.6-11.8-1.4-.9-3.1-.9-4.7-1zm421-10c-.8 4.2-3.9 17.9-5.8 20.9-1.9 2.8-6.3 6-9.2 7.7-4.6 2.6-12.4 4-16.6 0-7.3-6.9-2.4-19 4.6-23.9 6.5-4.6 19.2-4.7 27-4.7z" class="style0"/></svg>