<svg xmlns="http://www.w3.org/2000/svg" width="5.82in" height=".98in" viewBox="0 0 1746 294"><style>.style0{stroke: black;fill: #333333;}</style><path d="M1180 15v7l21-1 6.2 32 4.4 26 10.6 82 4.8 57 1 19-25 1c.3 7.5 2.1 7 9 7h43v-9l-21 1v-30l-1-17v-22c0-10.2-3.3-19.4 1.9-29 4.1-7.6 12.2-17 20.1-20.9 12.2-5.9 28.5-.5 36.5 9.9 8.4 10.9 8.7 24.9 8.5 38-.2 19.7-13.8 39.4-14 57-.1 5.8-.4 10.6 2.4 16 3.2 6.2 8.3 11.6 15.6 12 14.9.8 24.8-11.9 24.8-26 .2-1.9.3-5.2 0-7-2.6-8.6-15.1-9.2-19.8-6.8-7.5 3.8-9.5 18.1 2 16.8-.7-2.9-2.2-10.1 1.4-11.8 4.8-2.3 9.2 7.2 9.5 10.8.9 10.4-6.4 15.1-15.9 11.9-7.9-2.7-12.8-7.2-13-15.9-.3-12.2 6.4-20.2 12.6-30 6.8-11 14.2-26.9 14.2-40v-13c-1.8-11.9-10.9-24.3-20.8-30.8-6.3-4-12.5-6.1-20-6.2-16.5-.2-24.8 1.8-37 14-4.9 4.9-8 8.2-10 15l-2-26-1-27-1-15-1-14v-9l-2-24 17-2v-7l-24 3.6-38 3.4zm-779 3v5h17v56l-1 17-2.2 32-4.2 34-6.6 49v12c.1 15.5 10.6 21.6 25 19.8 12.7-1.5 29.9-12.7 34.5-24.8 1.5-3.8 1.5-6.1 1.5-10 0-5.1-.2-8.7-3.4-13-11.1-14.6-34.6-5.7-33.6 13 .4 5.8 2.9 9 9 9 2.1 0 4-.2 5.6-1.6 2.6-2.1 3.1-5.3 3.4-8.4l-13 3c.5-14 15.1-13.6 19.7-5 3.8 7.3-.5 16.7-5.8 21.9-11.4 11.4-30.1 14.2-36.7-3.9-2.2-5.8-1-13.1 0-19l9.5-37c10.1-35 14.4-69.2 19.3-105l3.9-28c.3-3.1.7-10.2 2.7-12.5 2.2-2.4 7.3-3.1 10.4-3.5v-7l-22 4.6c-12.7 2.3-20.3 2.4-33 2.4zm419 107l-41 10.6c-17.4 3.5-28.6 3.4-46 3.4v-27l-1-17-2-45 21-3v-8l-29 3-19 1h-20v8l19 1 9.6 51 9.6 71 2.8 35c0 17.6 2 43.6-7 59-6.1 10.6-20.6 17.4-24.7 1-.3-2.1-.4-4.9 0-7-.1-4 1.7-9.2 5.7-10.9 3.6-1.6 7 1.5 7.6 4.9.3 1.7-.2 3.4-.6 5l-7-1c4.7 11.5 15.1 7.2 15.9-1 .9-8.9-5.6-13.8-13.9-14-9.5-.2-22.4 6.4-23 17-.9 16.4 15.9 27.2 31 22.1 8.5-2.8 13.2-10.4 16.7-18.1 6.4-14.3 6.4-25 7.4-40l.9-11v-67h10c21.3 0 58.1-8.9 79-15l11.4 65 5.6 28-23 4v11l22-5.9 39-7.1c-.1-2.4-.1-6.5-2.5-7.9-2.2-1.3-6.3.5-8.5 1.2-6.2 1.8-11.6 2.9-18 3.7l-5.9-44c-3.2-27.7-8.1-75-8.1-102 0-16.6-.6-34.7 9.6-49 2.3-3.1 5.6-6.6 9.4-7.6 9.6-2.5 17.5 8 18 16.6.2 5.6-2.5 17.3-8.1 19.9-3.9 1.8-11.6-1.6-8.9-12.9l9.2 5c.4-2.3 1.3-6.3 0-8.6-1.1-2.6-5.7-2.6-8.2-2.3-6.9.9-12.5 7.9-10.6 14.9 1.6 5.6 9.2 9.5 14.6 9.9 2.5.2 6.6.2 9-.5 7.1-2.1 15.1-9.9 15.9-17.4.3-3.3.1-7.8-.8-11-6.9-24.8-43.2-27.8-59.9-4-5.5 7.8-8.2 16.5-8.2 26l1.2 32 3.8 35zm810-26h9c0-24.8 7.2-45.7 8-62-3.1 0-14.2.5-16 2.7-1.2 1.5-1 4.5-1 6.3v53zm-1621-57v9h25l2.8 25 4.2 50 1 13v68l-1 19h-16l-8 1.6-1 6.4h34l59 8h8c10.1 0 19.3-2.3 24.6-12 2-3.8 2.3-6.8 2.4-11 0-3.6.2-9.7-.5-13-2.4-11.1-12.2-25.3-24.5-26-11.3-.5-17.8 7.1-18 18-.1 8.3 1.2 18.4 11 20.6 8.8 2 17.4-3.3 18-12.6.4-8.1-1.6-11.3-10-9 1.3 2.8 5 7.1 3.8 9.8-1.7 4.2-15.5 5.4-17.3-1.8-2.9-11 17.3-17.9 24.9-8.8 1.4 1.7 2.8 4.7 3.5 6.8 5.6 16.6-10.9 24.8-24.9 25l-60-2 2.8-24 5.2-49v-8l1-12v-55l-1-12v-16h21v-10l-26 2h-44zm175 29l-8 1c3.1-9.8 11.6-1.5 9.6 6-1.8 6.6-9.3 7-14.6 4.6-10.9-5-13.7-16.2-4-24.3 2.3-1.9 5.2-3.5 8-4.4 3.2-1 8.8-1.3 12-.5 6.9 1.6 7.8 6.6 14 8.6-.7-11.9-9.8-17.9-21-18-2.7 0-6.5-.1-9 .6-7.5 2.4-14.3 11.5-14.9 19.4-.7 8.7.4 15.9 7.9 21.4 8.8 6.4 27.9 5 32.3-6.4 4-10.6-4.6-17-14.3-17-3.5 0-6.9.3-9.3 3.3-6.5 8.4 5 19.3 10.1 10.5 1-1.5 1-3.1 1.2-4.8zm27 35v9l27-7-2.2 30c-2 21-3.8 41.8-3.8 63 0 20.2 13.2 35.8 34 36 4.4.1 8.9.3 13-1.6 8.9-4 15.7-15.2 18.1-24.4 1.2-4.7 1.8-13.8-.8-18-7.6-12.1-30.5-16.7-37.8-2-1.8 3.5-2.2 9.6 0 12.9 3.8 5.2 14.4 7.4 18.6 1.9 2-2.7 1.9-5.7 1.9-8.8l-11 5c.1-4.7.5-10.7 6-12.3 7.5-2.2 11.9 9.7 12 15.3.2 10.7-4.2 26.2-17 27-16.7.9-25.8-13.9-26-29v-9c0-15.4 8-49.9 10.9-67l2.8-16c.4-3 .3-6 2.7-8.3 2.3-2.1 8.5-3.3 11.6-4.1l30-4.6c-.1-2.5-.2-7.4-2.6-8.9-2.1-1.5-7.8.4-10.4.9l-30 8c2.1-7.1 2.9-19.4 3-27l1-14c-6.2.1-11.9 1.2-18 2.2-2 .4-5.7.7-7.1 2.4-1.7 2.3-.5 7.7 0 10.4l1.1 23c0 2.6.3 6.4-1.6 8.4-1.5 1.6-5.2 2.2-7.4 2.7l-18 3.9zm91 0v9l27-7-2.2 30c-2 21-3.8 41.8-3.8 63 0 20.2 13.1 35.8 34 36 4.4.1 8.9.3 13-1.6 8.9-4 15.7-15.2 18.1-24.4 1.2-4.7 1.8-13.8-.8-18-7.6-12.1-30.5-16.7-37.8-2-1.8 3.5-2.2 9.6 0 12.9 3.8 5.2 14.4 7.4 18.6 1.9 2-2.7 1.9-5.7 1.9-8.8l-11 5c.1-4.7.5-10.7 6-12.3 7.5-2.2 11.9 9.7 12 15.3.2 10.7-4.2 26.2-17 27-16.7.9-25.8-13.9-26-29v-9c0-15.4 8-49.9 10.9-67l2.8-16c.4-3 .3-6 2.7-8.3 2.3-2.1 8.5-3.3 11.6-4.1l30-4.6c-.1-2.5-.2-7.4-2.6-8.9-2.1-1.5-7.8.4-10.4.9l-30 8c2.1-7.1 2.9-19.4 3-27l1-14c-6.2.1-11.9 1.2-18 2.2-2 .4-5.7.7-7.1 2.4-1.7 2.3-.5 7.7 0 10.4l1.1 23c0 2.6.3 6.4-1.6 8.4-1.5 1.6-5.2 2.2-7.4 2.7l-18 3.9zm809 0v9l27-7-2.2 30c-2 21-3.8 41.8-3.8 63 0 20.2 13.2 35.8 34 36 4.4.1 8.9.3 13-1.6 8.9-4 15.7-15.2 18.1-24.4 1.2-4.7 1.8-13.8-.8-18-7.6-12.1-30.5-16.7-37.8-2-1.8 3.5-2.2 9.6 0 12.9 3.8 5.2 14.4 7.4 18.6 1.9 2-2.7 1.9-5.7 1.9-8.8l-11 5c0-4.7.5-10.7 6-12.3 7.5-2.2 11.8 9.7 12 15.3.2 10.7-4.2 26.2-17 27-16.7.9-25.8-13.9-26-29v-9c0-15.4 8-49.9 10.9-67l2.8-16c.4-3 .3-6 2.7-8.3 2.3-2.1 8.5-3.3 11.6-4.1l30-4.6c-.1-2.5-.2-7.4-2.6-8.9-2.1-1.5-7.9.4-10.4.9l-30 8c2.1-7.1 2.9-19.4 3-27l1-14c-6.2.1-11.9 1.2-18 2.2-2 .4-5.7.7-7.1 2.4-1.7 2.3-.5 7.7 0 10.4l1.1 23c0 2.6.3 6.4-1.6 8.4-1.5 1.6-5.2 2.2-7.4 2.7l-18 3.9zm586 108c.8-3.3 1.7-7.8 0-10.9-2.9-5.1-12.4-5-17-2.7-6.9 3.5-9.9 10.2-10 17.6 0 2.8-.1 6.3.5 9 1.7 7.1 8.3 17.1 15.5 19.3 2.4.8 5.5.7 8 .7 6.5 0 10 .4 16-2.9 11-6 20.3-17.6 22.8-30.1.4-3.4.2-8.4 0-12 0-19.9-16.6-31.2-29.8-43.2-13.5-12.1-22.2-25.1-22-43.8.1-4.2.3-6.2 2.3-10 7.5-13.6 21.6-16.3 32.6-5 3 3.1 5.4 6.9 6.5 11 1.1 4.1.9 9.5-2.7 12.3-4.2 3.1-12.4.6-14.1-4.3-1.3-4.3 2.9-8 4.4-14-3.7 0-9.8-.8-12.4 2.3-4.6 5.5.2 24.9 13.4 25.7 12.8.7 22.7-9.5 23-22 .1-3.7.1-7.6-1.6-11-4.4-9.3-16.6-13.9-26.4-14-7-.1-13.4-.4-20 2.5-12.3 5.5-22.8 18.8-23 32.5-.1 12 .8 20.5 7.5 31 9.4 14.5 36.9 29.3 48.7 47 7.1 10.5 6.5 20.7-2.3 30-5.1 5.4-8.4 7.3-15.9 7-7.9-.4-17.9-5.1-22-12-2.8-4.7-1.9-8.2 2.1-11.8 1.3-1.3 2.9-2.5 4.9-2.6 3-.2 5.6 2.9 11 4.4zm-236-113c.6 10.5 5.1 6 18 5l5.4 28 3.3 22c3.4 25.8 3.3 48.2 3.3 74h-20l-1 6c5.4 1.5 25 1.4 31 .7l15-2.7c-.6-10.2-4.8-6.4-17-4l2-41 .9-10 .9-15 .7-11c1.6-6.7 9.7-22.4 14-28 6.2-8 14.2-16.3 24.5-18.5 25-5.3 43 26.1 43 47.5 0 20.1.3 51.9-13.3 68-3.4 3.9-7.4 7.1-12.7 7.8-10.8 1.4-17.7-6.3-14.3-16.8 2.1-7 10.9-12.6 11.3 0h-7c.3 1.5.2 2.9 1.6 4 4.6 3.6 20.9.2 15.7-11.8-2.1-4.7-7.9-5.1-12.3-5.2-9.8-.1-21.3 3.3-22 15-.3 6.1 1 9.4 5.2 14 9.3 10.1 22.5 10.5 33.8 3.5 17.7-10.9 33.8-43.7 33.8-64.5v-19c-2.9-17-12.8-31.2-26.8-41-7.7-5.3-16.5-8.9-26-8.8-3.6-.2-9.6-.4-13 0-13.2 2.8-24.2 14.4-30.2 25.8-2.5 4.6-4.8 8.9-5.8 14l1-35v-16c-14.7 4-25.3 12.2-43 13zm-412 38h-7c1.1-14 15.2-5.9 12.3 4-3.1 10.9-17.5 19.2-24.1 6-3.2-6.2-.3-21.6 2.3-28 1.7-4.2 4.3-8.7 7.6-11.8 7.2-6.7 22.6-10.5 30.9-3.8 7.4 6 9.9 19.4 10 28.6.2 15.2.1 23.3-5.4 38-1.3 3.4-3.6 10.1-6.8 12-1.8 1-14.1 2-16.8 2-12.7.1-23.3.4-33 10-2.5 2.6-4.8 5.4-5.7 9-.4 2.2-.4 8.7 0 11 .3 2.5 1.3 4.9 2.7 7 11.1 16.9 33.4 7.2 46-2v18h6c0-18 4.5-35 12.8-51 7.7-14.9 20-30.4 20.2-48 .2-15.4.1-29.2-12.1-40.8-10.4-9.9-26.5-10.6-38.9-4.4-13.5 6.8-28.3 24.2-31.5 39.2-.6 2.9-.5 6.1-.5 9 .2 13.5 8.5 18.3 21 18 12.9-.3 27.7-12.4 27-26-.9-14.5-21.9-11.4-25-9.8-2.4 1.2-4.3 3.3-5.3 5.8-1 2.8-1.1 8.3.9 10.7 2.5 3 10.2 4.3 12.4-2.7zm-897-36v7h16l1.8 25 2.2 41 1 15v42h-18v9l26-3h23c7.5-.1 7-2.3 7-9l-30 2 2-53 1-16 1.9-26v-10l1.1-8 1.6-9.3 11.4-3.7v-7l-29 4h-19zm398 99c-.3 2.9-.8 6.3-4.1 7.3-3.7 1.2-7.8-2.5-6.1-7.3 1.5-4.5 5.8-6 10.2-5.9 10.3.1 22.1 9.8 16.5 20.9-4 8.2-14.6 13.8-23.5 14-17.4.4-30.5-11.2-38.2-26-9.6-18.4-8.4-46.5-2.7-66 4.6-15.5 16.9-33.8 34.9-33 25 1.1 39.6 43.2 17 55.6-4.7 2.6-8.9 2.5-14 2.4-7.4-.1-18.8-3.1-23.6-9.1-4.6-5.7-1.6-15.1 2.7-16.7 3.1-1.2 6.1 1.8 6.4 4.8.3 4.2-4.8 5.8-3.8 8.8 1.2 3.5 8.1 2.1 10.3.6 6.6-4.5 7.8-16.2-3-19.6-11.9-3.7-25.7 2.8-26 16.2-.1 2.7-.1 5.6 1.2 8 4.6 9.2 18.4 11.9 27.8 12 13.2.2 24.3 1 36-6.6 16.4-10.5 21.2-31.7 6.8-46.2-6.6-6.7-18.4-13.5-27.8-15h-13c-29.3.1-57.9 36.7-58 64.8-.1 12.9-.6 18.6 4.4 31 7.1 17.5 26.2 34.8 44.6 39.5 7 1.8 11.9 1.6 19 1.5 10-.1 22.6-5.3 28-14 2.5-4 2.9-7.4 3-12 .1-10.8-2.7-19.9-14-24-6.8-2.5-17.7-1.3-22.8 4.1-6.3 6.8-6.2 21.1 2.8 25.7 4.5 2.3 11.2 1.2 14.3-3 2-2.8 2.7-9.6-.6-11.8-1.4-.9-3.1-.9-4.7-1zm411 0c-.3 2.9-.8 6.3-4.1 7.3-3.7 1.2-7.8-2.5-6.1-7.3 1.5-4.5 5.8-6 10.2-5.9 10.3.1 22.1 9.8 16.5 20.9-4 8.2-14.6 13.8-23.5 14-17.4.4-30.5-11.2-38.2-26-9.6-18.4-8.4-46.5-2.7-66 4.6-15.5 16.9-33.8 34.9-33 25 1.1 39.6 43.2 17 55.6-4.7 2.6-8.9 2.5-14 2.4-7.4-.1-18.8-3.1-23.6-9.1-4.6-5.7-1.6-15.1 2.7-16.7 3.1-1.2 6.1 1.8 6.4 4.8.3 4.2-4.8 5.8-3.8 8.8 1.2 3.5 8.1 2.1 10.3.6 6.6-4.5 7.8-16.2-3-19.6-11.9-3.7-25.7 2.8-26 16.2 0 2.7 0 5.6 1.2 8 4.6 9.2 18.4 11.9 27.8 12 13.2.2 24.3 1 36-6.6 16.4-10.5 21.2-31.7 6.8-46.2-6.6-6.7-18.4-13.5-27.8-15h-13c-29.3.1-57.9 36.7-58 64.8-.1 12.9-.6 18.6 4.5 31 7 17.5 26.1 34.8 44.5 39.5 7 1.8 11.9 1.6 19 1.5 10-.1 22.6-5.3 28-14 2.5-4 2.9-7.4 3-12 .1-10.8-2.7-19.9-14-24-6.8-2.5-17.7-1.3-22.8 4.1-6.3 6.8-6.2 21.1 2.8 25.7 4.5 2.3 11.2 1.2 14.3-3 2-2.8 2.7-9.6-.6-11.8-1.4-.9-3.1-.9-4.7-1zm461 0c-.3 2.9-.8 6.3-4.1 7.3-3.7 1.2-7.8-2.5-6.1-7.3 1.5-4.5 5.8-6 10.2-5.9 10.3.1 22.1 9.8 16.5 20.9-4 8.2-14.6 13.8-23.5 14-17.4.4-30.5-11.2-38.2-26-9.6-18.4-8.4-46.5-2.7-66 4.6-15.5 16.9-33.8 34.9-33 25 1.1 39.6 43.2 17 55.6-4.7 2.6-8.9 2.5-14 2.4-7.4-.1-18.8-3.1-23.6-9.1-4.6-5.7-1.6-15.1 2.7-16.7 3.1-1.2 6.1 1.8 6.4 4.8.3 4.2-4.8 5.8-3.8 8.8 1.2 3.5 8.1 2.1 10.3.6 6.6-4.5 7.8-16.2-3-19.6-11.9-3.7-25.7 2.8-26 16.2 0 2.7 0 5.6 1.2 8 4.6 9.2 18.4 11.9 27.8 12 13.2.2 24.3 1 36-6.6 16.4-10.5 21.2-31.7 6.8-46.2-6.6-6.7-18.4-13.5-27.8-15h-13c-29.3.1-57.9 36.7-58 64.8-.1 12.9-.6 18.6 4.5 31 7 17.5 26.1 34.8 44.5 39.5 7 1.8 11.9 1.6 19 1.5 10-.1 22.6-5.3 28-14 2.5-4 2.9-7.4 3-12 .1-10.8-2.7-19.9-14-24-6.8-2.5-17.7-1.3-22.8 4.1-6.4 6.8-6.2 21.1 2.8 25.7 4.5 2.3 11.2 1.2 14.3-3 2-2.8 2.7-9.6-.6-11.8-1.4-.9-3.1-.9-4.7-1zm-354-10c-.8 4.2-3.9 17.9-5.8 20.9-1.9 2.8-6.3 6-9.2 7.7-4.6 2.6-12.4 4-16.6 0-7.3-6.9-2.4-19 4.6-23.9 6.5-4.6 19.2-4.7 27-4.7z" class="style0"/></svg>