<svg xmlns="http://www.w3.org/2000/svg" width="5.5in" height="0.926667in" viewBox="0 0 1650 278"><style>.style0{stroke:	black;fill:	#333333;}</style><path d="M 1142 23 C 1142 23 1142 31 1142 31 1149.9 31 1167 31 1174 29 1174 29 1183.6 75 1183.6 75 1189.3 106.9 1193.4 147.1 1187.4 179 1186 186.1 1184.7 192.3 1181.7 199 1174.4 215.1 1159.4 226.9 1141 223.7 1118.4 219.7 1115.4 185.4 1121.7 168 1124 161.8 1129.6 153.3 1136 150.9 1150.9 145.2 1156.6 167.2 1153.1 180 1152.2 183.2 1149.9 188.2 1146.8 189.8 1141.5 192.3 1137.9 183.4 1139.6 179.1 1141.1 175.2 1144.5 175.1 1148 175 1147.1 163.4 1134.5 166.5 1131.2 169.4 1128 172.2 1127.9 176.1 1128 180 1128.6 192.6 1141.8 199 1153 195 1166.7 190.2 1172.7 176.4 1167.5 163 1166 158.9 1164 156.2 1161 153 1137.4 128.8 1100.3 156.5 1100 184 1099.9 191.3 1099.7 196 1102.7 203 1105.8 210.3 1110.7 216 1117 220.8 1141 239 1175.3 229.9 1189.7 204 1198.6 187.9 1204.8 158.4 1205 140 1205 140 1205 93 1205 93 1205 93 1204 74 1204 74 1204 74 1203 58 1203 58 1203 58 1202 41 1202 41 1202 41 1202 26 1202 26 1202 26 1220 25 1220 25 1220 25 1220 15 1220 15 1220 15 1189 20.7 1189 20.7 1189 20.7 1142 23 1142 23 Z M 151 188 C 151 188 154.5 204 154.5 204 156.9 216.6 161.4 235.3 154.5 247 146.3 260.9 127.2 269.9 118.7 253 117.5 250.6 117.2 248.6 117 246 116.8 241.5 117.6 236.7 120.6 233.2 126.2 226.6 129.8 233 130 239 130 239 124 239 124 239 124.2 240.5 124.2 242.2 125.2 243.4 127.7 246.7 140.2 245.4 138.8 235 137.4 225 126.4 222.5 118 224.5 106.9 227.2 98.4 242.2 103.1 253 109.5 267.8 133.8 271.8 147 264.9 158.8 258.6 165.9 245.1 166 232 166 232 166 211 166 211 166 211 165.1 199 165.1 199 165.1 199 163.9 176 163.9 176 163.9 176 163 164 163 164 163 157.6 163.7 149 162 143 162 143 184 141 184 141 184 141 184 131 184 131 184 131 159 134.8 159 134.8 159 134.8 135 136 135 136 135 136 123 137 123 137 123 137 109 137 109 137 109 137 109 147 109 147 109 147 145 144 145 144 145 162.3 142.3 185 128.8 198.9 110.2 218.1 76.4 204.7 60 189 44.9 174.5 35.8 155.7 33.1 135 33.1 135 33.1 108 33.1 108 33.3 80 46.1 43.5 71 28.5 91.4 16.1 121.6 20.2 130.4 45 132.1 49.6 132.1 53.2 132 58 131.9 68.6 126.1 82.8 114 83.9 106.4 84.5 97 77.3 98.4 69 99.4 63.5 104.1 60.3 108.8 64.4 111.6 66.9 111.8 69.5 112 73 127.1 69.1 121.8 50.3 108 49.1 93.6 47.9 86.7 65.2 91 77 95 88.1 103.5 90.1 114 90 128.8 89.8 144.1 78.4 148.2 64 149.2 60.6 149 56.6 149 53 148.9 42.6 142.9 33.9 135 27.5 126.3 20.3 115.3 16.1 104 16 88.4 15.8 80.7 15.6 66 22.5 34.4 37.3 10.4 82.6 10 117 9.9 127 9.3 137.2 11.7 147 18.3 175.2 39.4 195.2 65 207.2 72.4 210.7 84.8 213.9 93 214 93 214 108 214 108 214 125 213.8 143.2 203.1 151 188 Z M 920 82 C 920 82 920 91 920 91 920 91 947 84 947 84 947 84 944.8 114 944.8 114 942.8 135 941 155.8 941 177 941 197.2 954.1 212.8 975 213 979.4 213.1 983.9 213.3 988 211.4 996.9 207.4 1003.7 196.2 1006.1 187 1007.3 182.3 1007.9 173.2 1005.3 169 997.7 156.9 974.8 152.3 967.5 167 965.7 170.5 965.3 176.6 967.5 179.9 971.3 185.1 981.9 187.3 986.1 181.8 988.1 179.1 988 176.1 988 173 988 173 977 178 977 178 977 173.3 977.5 167.3 983 165.7 990.5 163.5 994.9 175.4 995 181 995.2 191.7 990.8 207.2 978 208 961.3 208.9 952.2 194.1 952 179 952 179 952 170 952 170 952 154.6 960 120.1 962.9 103 962.9 103 965.7 87 965.7 87 966.1 84 966 81 968.4 78.7 970.7 76.6 976.9 75.4 980 74.6 980 74.6 1010 70 1010 70 1009.9 67.5 1009.8 62.6 1007.4 61.1 1005.3 59.6 999.5 61.5 997 62 997 62 967 70 967 70 969.1 62.9 969.9 50.6 970 43 970 43 971 29 971 29 964.8 29.1 959.1 30.2 953 31.2 951 31.6 947.3 31.9 945.9 33.6 944.2 35.9 945.4 41.3 945.9 44 945.9 44 947 67 947 67 947 69.6 947.3 73.4 945.4 75.4 943.9 77 940.2 77.6 938 78.1 938 78.1 920 82 920 82 Z M 1598 190 C 1598.8 186.7 1599.7 182.2 1598 179.1 1595.1 174 1585.6 174.1 1581 176.4 1574.1 179.9 1571.1 186.6 1571 194 1571 196.8 1570.9 200.3 1571.5 203 1573.2 210.1 1579.8 220.1 1587 222.3 1589.4 223.1 1592.5 223 1595 223 1601.5 223 1605 223.4 1611 220.1 1622 214.1 1631.3 202.5 1633.8 190 1634.2 186.6 1634 181.6 1633.8 178 1633.8 158.1 1617.2 146.8 1604 134.8 1590.5 122.7 1581.8 109.7 1582 91 1582.1 86.8 1582.3 84.8 1584.3 81 1591.8 67.4 1605.9 64.7 1616.9 76 1619.9 79.1 1622.3 82.9 1623.4 87 1624.5 91.1 1624.3 96.5 1620.7 99.3 1616.5 102.4 1608.3 99.9 1606.6 95 1605.3 90.7 1609.5 87 1611 81 1607.3 81 1601.2 80.2 1598.6 83.3 1594 88.8 1598.8 108.2 1612 109 1624.8 109.7 1634.7 99.5 1635 87 1635.1 83.3 1635.1 79.4 1633.4 76 1629 66.7 1616.8 62.1 1607 62 1600 61.9 1593.6 61.6 1587 64.5 1574.7 70 1564.2 83.3 1564 97 1563.9 109 1564.8 117.5 1571.5 128 1580.9 142.5 1608.4 157.3 1620.2 175 1627.3 185.5 1626.7 195.7 1617.9 205 1612.8 210.4 1609.5 212.3 1602 212 1594.1 211.6 1584.1 206.9 1580 200 1577.2 195.3 1578.1 191.8 1582.1 188.2 1583.4 186.9 1585 185.7 1587 185.6 1590 185.4 1592.6 188.5 1598 190 Z M 352 89 C 355.9 90.2 356.1 90.4 358 94 355.8 94 353.1 94.1 351 93.3 339.3 88.7 348 76.7 360 76 372.6 75.4 378 86.2 373.6 97 364.4 119.9 340.1 129.7 340.1 159 340.1 159 340.1 170 340.1 170 342.6 185.9 354.4 200.3 368 208.1 385.6 218.2 407.3 215.7 423 203.3 427.9 199.5 432.4 194.7 435 189 435 189 438 222 438 222 438 222 466 213 466 213 466 213 465 206 465 206 465 206 445 211 445 211 445 211 443 147 443 147 443 147 442 132 442 132 441.9 121.1 443 89.3 441 81 441 81 456 78 456 78 455.9 75.8 456.2 72.7 453.7 71.7 451.6 70.9 444.5 73.2 442 73.9 434.8 75.7 427.4 77.1 420 77.8 417.5 78.1 411.1 77.7 409.3 78.6 406.8 79.8 407.1 82.6 407 85 407 85 422 85 422 85 422 85 425.9 110 425.9 110 425.9 110 432.1 154 432.1 154 432.7 159.8 435.4 174.3 433.1 179.2 422.4 201 398.7 216.7 376 200.9 372.2 198.3 369.6 195.7 366.9 192 359 181.1 357.9 170 358 157 358.3 134.5 379.7 114.5 380 93 380.1 83.8 380.3 76 372.9 69.2 360.3 57.6 343.7 70.1 340.5 84 339 90.7 339.8 99.2 346 103.3 353.5 108.2 364.1 102.6 364.9 94 365.9 83.7 355.4 80.2 352 89 Z M 1280 115 C 1280 115 1273 115 1273 115 1274.1 101 1288.2 109.1 1285.3 119 1282.2 129.9 1267.8 138.2 1261.2 125 1258 118.8 1260.9 103.4 1263.5 97 1265.2 92.8 1267.8 88.3 1271.1 85.2 1278.3 78.5 1293.7 74.7 1302 81.4 1309.4 87.4 1311.9 100.8 1312 110 1312.2 125.2 1312.1 133.3 1306.6 148 1305.3 151.4 1303 158.1 1299.8 160 1298 161 1285.7 162 1283 162 1270.3 162.1 1259.7 162.4 1250 172 1247.5 174.6 1245.2 177.4 1244.3 181 1243.9 183.2 1243.9 189.7 1244.3 192 1244.6 194.5 1245.6 196.9 1247 199 1258.1 215.9 1280.4 206.2 1293 197 1293 197 1293 215 1293 215 1293 215 1299 215 1299 215 1299 197 1303.5 180 1311.8 164 1319.5 149.1 1331.8 133.6 1332 116 1332.2 100.6 1332.1 86.8 1319.9 75.2 1309.5 65.3 1293.4 64.6 1281 70.8 1267.5 77.6 1252.7 95 1249.5 110 1248.9 112.9 1249 116.1 1249 119 1249.2 132.5 1257.5 137.3 1270 137 1282.9 136.7 1297.7 124.6 1297 111 1296.1 96.5 1275.1 99.6 1272 101.2 1269.6 102.4 1267.7 104.5 1266.7 107 1265.7 109.8 1265.6 115.3 1267.6 117.7 1270.1 120.7 1277.8 122 1280 115 Z M 463 91 C 463 91 464.6 94.9 464.6 94.9 464.6 94.9 471 94.4 471 94.4 471 94.4 484 90 484 90 484 90 490.6 116 490.6 116 490.6 116 501.9 174 501.9 174 501.9 174 504.9 196 504.9 196 505.1 198.3 505.2 202.7 504 204.7 501.1 209.2 486.1 209 481 209 481 209 481 217 481 217 496.9 216.9 516.3 210.7 531 204.8 545.8 198.8 546.5 198.4 545 190 545 190 530 196.7 530 196.7 530 196.7 512 204 512 204 512 204 510.9 175 510.9 175 510.9 175 510 162 510 162 510 162 509 148 509 148 508.8 130.6 504.6 126.7 513.3 110 517.7 101.4 524.6 92 534 88.6 545.5 84.3 564.5 88.9 565.9 103 566.8 111.5 562.3 120.2 555 124.5 548.8 128.2 539.9 128.2 536.2 121 534.2 117.2 535.5 112.3 538.5 109.4 541.7 106.4 545.4 107.5 545.8 112 545.8 112 545 119 545 119 549.6 118.5 554.1 117.4 554.9 112 556.1 102.9 547.5 99.6 540 100 533.9 100.4 525.7 106.2 523.4 112 522.9 114 522.9 117.9 523.4 120 525.3 133.6 540.7 136.7 552 132.9 565.6 128.3 572.9 117 573 103 573 97.2 573.3 92.6 571.1 87 565.2 72.4 548.3 65.6 534 72.3 521.9 78 510.1 93.8 508 107 505.1 96.8 507.9 79.8 508 69 508 69 492 79.5 492 79.5 484.2 84.2 471.9 89.2 463 91 Z M 576 77 C 576 77 576 84 576 84 576 84 596 83 596 83 596 83 603.8 116 603.8 116 607.4 133.1 612 166.9 612 184 612 188.2 613 202.6 610.4 205.3 608.1 207.5 597.4 208.7 594 209 594.1 211.2 594 214.3 596.4 215.4 598.6 216.4 606.3 214.7 609 214.3 620.4 212.7 626.7 213 638 213 638 213 638 205 638 205 638 205 620 205 620 205 620 205 620 143 620 143 620 143 621 122 621 122 621 118.8 620.9 116.1 621.8 113 625 101.8 637 89.6 649 89 660 88.6 666.9 94.5 673.2 103 677.1 108.3 680.1 114.6 681.5 121 682.5 125.8 682 131.2 682 136 682 136 680.8 166 680.8 166 680 173.7 676.2 193.9 665 191.5 660.4 190.6 656.1 184.5 659.6 180.3 661.7 177.8 665.1 178 668 178 668 178 665 185 665 185 668 184.9 670.3 185 672.6 182.7 675.9 179.2 677.6 167.7 666 167 655.7 166.5 651 172 651 182 651 191.2 655.6 196.5 665 197 680.2 197.8 687.7 183.6 692 171 697.1 156.1 698 147.6 698.1 132 698.1 132 698.1 107 698.1 107 700.6 99.3 710.9 85.2 719 83.4 735.1 79.7 746.7 92.8 752.7 106 758.1 118 758 127.3 758 140 758 155 758.1 161.9 755 177 753.3 185.2 749.9 196.2 743 201.4 734.1 208.1 719.9 200.8 723.7 191 726.1 185 732.6 185.5 733.7 188.3 734.3 190.2 731.8 194.1 731 196 743.6 198.6 747.3 175.9 733 175 730 174.9 726.7 175.1 724 176.4 721.5 177.8 719.8 179.6 718.4 182 716.5 185.1 716.1 187.5 716 191 715.9 194 715.9 197.2 717 200 721 210.6 734.1 213.8 744 209.5 748.7 207.4 753.3 203 756.5 199 768.1 184.2 776 156.8 776 138 776 138 776 119 776 119 775.8 104.3 769.9 86.7 758 77.5 749.2 70.7 732.6 67.5 722 71.1 711.3 74.8 699.1 89.2 696 100 696 100 694 100 694 100 690.5 88.2 678.9 80.3 667 78.2 667 78.2 657 78.2 657 78.2 642.7 78.1 628.5 87.3 622 100 619.7 91.9 622.8 79 623 70 623 70 605 74 605 74 593.5 76.4 587.7 77 576 77 Z M 1338 77 C 1338 77 1338 84 1338 84 1338 84 1358 83 1358 83 1358 83 1365.8 116 1365.8 116 1369.4 133.1 1374 166.9 1374 184 1374 188.2 1375 202.6 1372.4 205.3 1370.1 207.5 1359.4 208.7 1356 209 1356.1 211.2 1356 214.3 1358.4 215.4 1360.6 216.4 1368.3 214.7 1371 214.3 1382.4 212.7 1388.7 213 1400 213 1400 213 1400 205 1400 205 1400 205 1382 205 1382 205 1382 205 1382 143 1382 143 1382 143 1383 122 1383 122 1383 118.8 1382.9 116.1 1383.8 113 1387 101.8 1399 89.6 1411 89 1422 88.6 1428.9 94.5 1435.2 103 1439.2 108.3 1442.1 114.6 1443.5 121 1444.5 125.8 1444 131.2 1444 136 1444 136 1442.8 166 1442.8 166 1442 173.7 1438.2 193.9 1427 191.5 1422.4 190.6 1418.1 184.5 1421.6 180.3 1423.7 177.8 1427.1 178 1430 178 1430 178 1427 185 1427 185 1430 184.9 1432.3 185 1434.6 182.7 1437.9 179.2 1439.6 167.7 1428 167 1417.7 166.5 1413 172 1413 182 1413 191.2 1417.6 196.5 1427 197 1442.2 197.8 1449.7 183.6 1454 171 1459.1 156.1 1460 147.6 1460.1 132 1460.1 132 1460.1 107 1460.1 107 1462.6 99.3 1472.9 85.2 1481 83.4 1497.1 79.7 1508.7 92.8 1514.7 106 1520.1 118 1520 127.3 1520 140 1520 155 1520.1 161.9 1517 177 1515.3 185.2 1511.9 196.2 1505 201.4 1496.1 208.1 1481.9 200.8 1485.7 191 1488.1 185 1494.7 185.5 1495.7 188.3 1496.3 190.2 1493.8 194.1 1493 196 1505.6 198.6 1509.3 175.9 1495 175 1492 174.9 1488.7 175.1 1486 176.4 1483.5 177.8 1481.8 179.6 1480.4 182 1478.5 185.1 1478.1 187.5 1478 191 1477.9 194 1477.9 197.2 1479 200 1483 210.6 1496.1 213.8 1506 209.5 1510.7 207.4 1515.3 203 1518.5 199 1530.1 184.2 1538 156.8 1538 138 1538 138 1538 119 1538 119 1537.8 104.3 1531.9 86.7 1520 77.5 1511.2 70.7 1494.6 67.5 1484 71.1 1473.3 74.8 1461.1 89.2 1458 100 1458 100 1456 100 1456 100 1452.5 88.2 1440.8 80.3 1429 78.2 1429 78.2 1419 78.2 1419 78.2 1404.7 78.1 1390.5 87.3 1384 100 1381.7 91.9 1384.8 79 1385 70 1385 70 1367 74 1367 74 1355.5 76.4 1349.7 77 1338 77 Z M 257 110 C 257 110 254 105 254 105 255.9 105 258.1 105 259.9 105.7 269.6 109.9 257.4 122.8 249 120.5 232.1 115.9 241.5 89.9 258 89 273.5 88.2 285.4 102.6 290.3 116 298.7 138.9 296.5 165.4 283.1 186 277 195.5 268 204.7 256 205 235.8 205.5 222.7 188.8 217 171 209.1 146 211.3 116.5 228.9 96 235.8 88.1 244.5 81.7 255 80 253.8 73.5 250.1 75 245 76.7 236.8 79.3 228.8 83.7 222 89 207.5 100.3 193.2 119.9 193 139 193 139 193 150 193 150 193.3 179 222.7 209.9 252 210 252 210 257 210 257 210 284.5 210 306.8 183 313.1 158 315.4 148.7 315.1 143.5 315 134 314.8 113.3 297.1 91 278 84.1 265.3 79.5 252.7 81.2 243 91 240.2 93.9 237.6 97.1 236.1 101 234.8 104.7 235 109 235 113 235.1 119.5 236.7 125.4 242 129.6 250.1 135.8 263.2 130.8 267.4 122 270.3 116 270 105.7 264 101.7 259.7 99 248.3 98.5 247.2 107 246 115.2 254.4 118.2 257 110 Z M 878 178 C 877.7 180.9 877.2 184.3 873.9 185.3 870.2 186.5 866.1 182.8 867.8 178 869.3 173.5 873.6 172 878 172.1 888.3 172.2 900.1 181.9 894.5 193 890.5 201.2 879.9 206.8 871 207 853.6 207.4 840.5 195.8 832.8 181 823.2 162.6 824.4 134.5 830.1 115 834.7 99.5 847 81.2 865 82 890 83.1 904.6 125.2 882 137.6 877.3 140.2 873.1 140.1 868 140 860.6 139.9 849.2 136.9 844.4 130.9 839.8 125.2 842.8 115.8 847.1 114.2 850.2 113 853.2 116 853.5 119 853.8 123.2 848.7 124.8 849.7 127.8 850.9 131.3 857.8 129.9 860 128.4 866.6 123.9 867.8 112.2 857 108.8 845.1 105.1 831.3 111.5 831 125 831 127.7 831 130.6 832.2 133 836.8 142.2 850.6 144.9 860 145 873.2 145.2 884.3 146 896 138.4 912.4 127.9 917.2 106.7 902.8 92.2 896.2 85.5 884.4 78.7 875 77.2 875 77.2 862 77.2 862 77.2 832.7 77.3 804.1 113.9 804 142 803.9 154.9 803.4 160.6 808.5 173 815.5 190.5 834.6 207.8 853 212.5 860 214.3 864.9 214.1 872 214 882 213.9 894.6 208.7 900 200 902.5 196 902.9 192.6 903 188 903.1 177.2 900.3 168.1 889 164 882.2 161.5 871.3 162.7 866.2 168.1 859.9 174.9 860 189.2 869 193.8 873.5 196.1 880.2 195 883.3 190.8 885.3 188 886 181.2 882.7 179 881.3 178.1 879.6 178.1 878 178 Z M 1299 168 C 1298.2 172.2 1295.1 185.9 1293.2 188.9 1291.3 191.7 1286.9 194.9 1284 196.6 1279.4 199.2 1271.6 200.6 1267.4 196.6 1260.1 189.7 1265 177.6 1272 172.7 1278.5 168.1 1291.2 168 1299 168 Z" class="style0"/></svg>
