<svg xmlns="http://www.w3.org/2000/svg" width="5.82in" height="0.98in" viewBox="0 0 1746 294"><style>.style0{stroke:	black;fill:	#333333;}</style><path d="M 1180 15 C 1180 15 1180 22 1180 22 1180 22 1201 21 1201 21 1201 21 1207.2 53 1207.2 53 1207.2 53 1211.6 79 1211.6 79 1211.6 79 1222.2 161 1222.2 161 1222.2 161 1227 218 1227 218 1227 218 1228 237 1228 237 1228 237 1203 238 1203 238 1203.3 245.5 1205.1 245 1212 245 1212 245 1255 245 1255 245 1255 245 1255 236 1255 236 1255 236 1234 237 1234 237 1234 237 1234 207 1234 207 1234 207 1233 190 1233 190 1233 190 1233 168 1233 168 1233 157.8 1229.7 148.6 1234.9 139 1239 131.4 1247.1 122 1255 118.1 1267.2 112.2 1283.5 117.6 1291.5 128 1299.9 138.9 1300.2 152.9 1300 166 1299.8 185.7 1286.2 205.4 1286 223 1285.9 228.8 1285.6 233.6 1288.4 239 1291.6 245.2 1296.7 250.6 1304 251 1318.9 251.8 1328.8 239.1 1328.8 225 1329 223.1 1329.1 219.8 1328.8 218 1326.2 209.4 1313.7 208.8 1309 211.2 1301.5 215 1299.5 229.3 1311 228 1310.3 225.1 1308.8 217.9 1312.4 216.2 1317.2 213.9 1321.6 223.4 1321.9 227 1322.8 237.4 1315.5 242.1 1306 238.9 1298.1 236.2 1293.2 231.7 1293 223 1292.7 210.8 1299.4 202.8 1305.6 193 1312.4 182 1319.8 166.1 1319.8 153 1319.8 153 1319.8 140 1319.8 140 1318 128.1 1308.9 115.7 1299 109.2 1292.7 105.2 1286.5 103.1 1279 103 1262.5 102.8 1254.2 104.8 1242 117 1237.1 121.9 1234 125.2 1232 132 1232 132 1230 106 1230 106 1230 106 1229 79 1229 79 1229 79 1228 64 1228 64 1228 64 1227 50 1227 50 1227 50 1227 41 1227 41 1227 41 1225 17 1225 17 1225 17 1242 15 1242 15 1242 15 1242 8 1242 8 1242 8 1218 11.6 1218 11.6 1218 11.6 1180 15 1180 15 Z M 401 18 C 401 18 401 23 401 23 401 23 418 23 418 23 418 23 418 79 418 79 418 79 417 96 417 96 417 96 414.8 128 414.8 128 414.8 128 410.6 162 410.6 162 410.6 162 404 211 404 211 404 211 404 223 404 223 404.1 238.5 414.6 244.6 429 242.8 441.7 241.3 458.9 230.1 463.5 218 465 214.2 465 211.9 465 208 465 202.9 464.8 199.3 461.6 195 450.5 180.4 427 189.3 428 208 428.4 213.8 430.9 217 437 217 439.1 217 441 216.8 442.6 215.4 445.2 213.3 445.7 210.1 446 207 446 207 433 210 433 210 433.5 196 448.1 196.4 452.7 205 456.5 212.3 452.2 221.7 446.9 226.9 435.5 238.3 416.8 241.1 410.2 223 408 217.2 409.2 209.9 410.2 204 410.2 204 419.7 167 419.7 167 429.8 132 434.1 97.8 439 62 439 62 442.9 34 442.9 34 443.2 30.9 443.6 23.8 445.6 21.5 447.8 19.1 452.9 18.4 456 18 456 18 456 11 456 11 456 11 434 15.6 434 15.6 421.3 17.9 413.7 18 401 18 Z M 820 125 C 820 125 779 135.6 779 135.6 761.6 139.1 750.4 139 733 139 733 139 733 112 733 112 733 112 732 95 732 95 732 95 730 50 730 50 730 50 751 47 751 47 751 47 751 39 751 39 751 39 722 42 722 42 722 42 703 43 703 43 703 43 683 43 683 43 683 43 683 51 683 51 683 51 702 52 702 52 702 52 711.6 103 711.6 103 711.6 103 721.2 174 721.2 174 721.2 174 724 209 724 209 724 226.6 726 252.6 717 268 710.9 278.6 696.4 285.4 692.3 269 692 266.9 691.9 264.1 692.3 262 692.2 258 694 252.8 698 251.1 701.6 249.5 705 252.6 705.6 256 705.9 257.7 705.4 259.4 705 261 705 261 698 260 698 260 702.7 271.5 713.1 267.2 713.9 259 714.8 250.1 708.3 245.2 700 245 690.5 244.8 677.6 251.4 677 262 676.1 278.4 692.9 289.2 708 284.1 716.5 281.3 721.2 273.7 724.7 266 731.1 251.7 731.1 241 732.1 226 732.1 226 733 215 733 215 733 215 733 148 733 148 733 148 743 148 743 148 764.3 148 801.1 139.1 822 133 822 133 833.4 198 833.4 198 833.4 198 839 226 839 226 839 226 816 230 816 230 816 230 816 241 816 241 816 241 838 235.1 838 235.1 838 235.1 877 228 877 228 876.9 225.6 876.9 221.5 874.5 220.1 872.3 218.8 868.2 220.6 866 221.3 859.8 223.1 854.4 224.2 848 225 848 225 842.1 181 842.1 181 838.9 153.3 834 106 834 79 834 62.4 833.4 44.3 843.6 30 845.9 26.9 849.2 23.4 853 22.4 862.6 19.9 870.5 30.4 871 39 871.2 44.6 868.5 56.3 862.9 58.9 859 60.7 851.3 57.3 854 46 854 46 863.2 51 863.2 51 863.6 48.7 864.5 44.7 863.2 42.4 862.1 39.8 857.5 39.8 855 40.1 848.1 41 842.5 48 844.4 55 846 60.6 853.6 64.5 859 64.9 861.5 65.1 865.6 65.1 868 64.4 875.1 62.3 883.1 54.5 883.9 47 884.2 43.7 884 39.2 883.1 36 876.2 11.2 839.9 8.2 823.2 32 817.7 39.8 815 48.5 815 58 815 58 816.2 90 816.2 90 816.2 90 820 125 820 125 Z M 1630 99 C 1630 99 1639 99 1639 99 1639 74.2 1646.2 53.3 1647 37 1643.9 37 1632.8 37.5 1631 39.7 1629.8 41.2 1630 44.2 1630 46 1630 46 1630 99 1630 99 Z M 9 42 C 9 42 9 51 9 51 9 51 34 51 34 51 34 51 36.8 76 36.8 76 36.8 76 41 126 41 126 41 126 42 139 42 139 42 139 42 207 42 207 42 207 41 226 41 226 41 226 25 226 25 226 25 226 17 227.6 17 227.6 17 227.6 16 234 16 234 16 234 50 234 50 234 50 234 109 242 109 242 109 242 117 242 117 242 127.1 242 136.3 239.7 141.6 230 143.6 226.2 143.9 223.2 144 219 144 215.4 144.2 209.3 143.5 206 141.1 194.9 131.3 180.7 119 180 107.7 179.5 101.2 187.1 101 198 100.9 206.3 102.2 216.4 112 218.6 120.8 220.6 129.4 215.3 130 206 130.4 197.9 128.4 194.7 120 197 121.3 199.8 125 204.1 123.8 206.8 122.1 211 108.3 212.2 106.5 205 103.6 194 123.8 187.1 131.4 196.2 132.8 197.9 134.2 200.9 134.9 203 140.5 219.6 124 227.8 110 228 110 228 50 226 50 226 50 226 52.8 202 52.8 202 52.8 202 58 153 58 153 58 153 58 145 58 145 58 145 59 133 59 133 59 133 59 78 59 78 59 78 58 66 58 66 58 66 58 50 58 50 58 50 79 50 79 50 79 50 79 40 79 40 79 40 53 42 53 42 53 42 9 42 9 42 Z M 184 71 C 184 71 176 72 176 72 179.1 62.2 187.6 70.5 185.6 78 183.8 84.6 176.3 85 171 82.6 160.1 77.6 157.3 66.4 167 58.3 169.3 56.4 172.2 54.8 175 53.9 178.2 52.9 183.8 52.6 187 53.4 193.9 55 194.8 60 201 62 200.3 50.1 191.2 44.1 180 44 177.3 44 173.5 43.9 171 44.6 163.5 47 156.7 56.1 156.1 64 155.4 72.7 156.5 79.9 164 85.4 172.8 91.8 191.9 90.4 196.3 79 200.3 68.4 191.7 62 182 62 178.5 62 175.1 62.3 172.7 65.3 166.2 73.7 177.7 84.6 182.8 75.8 183.8 74.3 183.8 72.7 184 71 Z M 211 106 C 211 106 211 115 211 115 211 115 238 108 238 108 238 108 235.8 138 235.8 138 233.8 159 232 179.8 232 201 232 221.2 245.2 236.8 266 237 270.4 237.1 274.9 237.3 279 235.4 287.9 231.4 294.7 220.2 297.1 211 298.3 206.3 298.9 197.2 296.3 193 288.7 180.9 265.8 176.3 258.5 191 256.7 194.5 256.3 200.6 258.5 203.9 262.3 209.1 272.9 211.3 277.1 205.8 279.1 203.1 279 200.1 279 197 279 197 268 202 268 202 268.1 197.3 268.5 191.3 274 189.7 281.5 187.5 285.9 199.4 286 205 286.2 215.7 281.8 231.2 269 232 252.3 232.9 243.2 218.1 243 203 243 203 243 194 243 194 243 178.6 251 144.1 253.9 127 253.9 127 256.7 111 256.7 111 257.1 108 257 105 259.4 102.7 261.7 100.6 267.9 99.4 271 98.6 271 98.6 301 94 301 94 300.9 91.5 300.8 86.6 298.4 85.1 296.3 83.6 290.6 85.5 288 86 288 86 258 94 258 94 260.1 86.9 260.9 74.6 261 67 261 67 262 53 262 53 255.8 53.1 250.1 54.2 244 55.2 242 55.6 238.3 55.9 236.9 57.6 235.2 59.9 236.4 65.3 236.9 68 236.9 68 238 91 238 91 238 93.6 238.3 97.4 236.4 99.4 234.9 101 231.2 101.6 229 102.1 229 102.1 211 106 211 106 Z M 302 106 C 302 106 302 115 302 115 302 115 329 108 329 108 329 108 326.8 138 326.8 138 324.8 159 323 179.8 323 201 323 221.2 336.1 236.8 357 237 361.4 237.1 365.9 237.3 370 235.4 378.9 231.4 385.7 220.2 388.1 211 389.3 206.3 389.9 197.2 387.3 193 379.7 180.9 356.8 176.3 349.5 191 347.7 194.5 347.3 200.6 349.5 203.9 353.3 209.1 363.9 211.3 368.1 205.8 370.1 203.1 370 200.1 370 197 370 197 359 202 359 202 359.1 197.3 359.5 191.3 365 189.7 372.5 187.5 376.9 199.4 377 205 377.2 215.7 372.8 231.2 360 232 343.3 232.9 334.2 218.1 334 203 334 203 334 194 334 194 334 178.6 342 144.1 344.9 127 344.9 127 347.7 111 347.7 111 348.1 108 348 105 350.4 102.7 352.7 100.6 358.9 99.4 362 98.6 362 98.6 392 94 392 94 391.9 91.5 391.8 86.6 389.4 85.1 387.3 83.6 381.6 85.5 379 86 379 86 349 94 349 94 351.1 86.9 351.9 74.6 352 67 352 67 353 53 353 53 346.8 53.1 341.1 54.2 335 55.2 333 55.6 329.3 55.9 327.9 57.6 326.2 59.9 327.4 65.3 327.9 68 327.9 68 329 91 329 91 329 93.6 329.3 97.4 327.4 99.4 325.9 101 322.2 101.6 320 102.1 320 102.1 302 106 302 106 Z M 1111 106 C 1111 106 1111 115 1111 115 1111 115 1138 108 1138 108 1138 108 1135.8 138 1135.8 138 1133.8 159 1132 179.8 1132 201 1132 221.2 1145.2 236.8 1166 237 1170.4 237.1 1174.9 237.3 1179 235.4 1187.9 231.4 1194.7 220.2 1197.1 211 1198.3 206.3 1198.9 197.2 1196.3 193 1188.7 180.9 1165.8 176.3 1158.5 191 1156.7 194.5 1156.3 200.6 1158.5 203.9 1162.3 209.1 1172.9 211.3 1177.1 205.8 1179.1 203.1 1179 200.1 1179 197 1179 197 1168 202 1168 202 1168 197.3 1168.5 191.3 1174 189.7 1181.5 187.5 1185.8 199.4 1186 205 1186.2 215.7 1181.8 231.2 1169 232 1152.3 232.9 1143.2 218.1 1143 203 1143 203 1143 194 1143 194 1143 178.6 1151 144.1 1153.9 127 1153.9 127 1156.7 111 1156.7 111 1157.1 108 1157 105 1159.4 102.7 1161.7 100.6 1167.9 99.4 1171 98.6 1171 98.6 1201 94 1201 94 1200.9 91.5 1200.8 86.6 1198.4 85.1 1196.3 83.6 1190.5 85.5 1188 86 1188 86 1158 94 1158 94 1160.1 86.9 1160.9 74.6 1161 67 1161 67 1162 53 1162 53 1155.8 53.1 1150.1 54.2 1144 55.2 1142 55.6 1138.3 55.9 1136.9 57.6 1135.2 59.9 1136.4 65.3 1136.9 68 1136.9 68 1138 91 1138 91 1138 93.6 1138.3 97.4 1136.4 99.4 1134.9 101 1131.2 101.6 1129 102.1 1129 102.1 1111 106 1111 106 Z M 1697 214 C 1697.8 210.7 1698.7 206.2 1697 203.1 1694.1 198 1684.6 198.1 1680 200.4 1673.1 203.9 1670.1 210.6 1670 218 1670 220.8 1669.9 224.3 1670.5 227 1672.2 234.1 1678.8 244.1 1686 246.3 1688.4 247.1 1691.5 247 1694 247 1700.5 247 1704 247.4 1710 244.1 1721 238.1 1730.3 226.5 1732.8 214 1733.2 210.6 1733 205.6 1732.8 202 1732.8 182.1 1716.2 170.8 1703 158.8 1689.5 146.7 1680.8 133.7 1681 115 1681.1 110.8 1681.3 108.8 1683.3 105 1690.8 91.4 1704.9 88.7 1715.9 100 1718.9 103.1 1721.3 106.9 1722.4 111 1723.5 115.1 1723.3 120.5 1719.7 123.3 1715.5 126.4 1707.3 123.9 1705.6 119 1704.3 114.7 1708.5 111 1710 105 1706.3 105 1700.2 104.2 1697.6 107.3 1693 112.8 1697.8 132.2 1711 133 1723.8 133.7 1733.7 123.5 1734 111 1734.1 107.3 1734.1 103.4 1732.4 100 1728 90.7 1715.8 86.1 1706 86 1699 85.9 1692.6 85.6 1686 88.5 1673.7 94 1663.2 107.3 1663 121 1662.9 133 1663.8 141.5 1670.5 152 1679.9 166.5 1707.4 181.3 1719.2 199 1726.3 209.5 1725.7 219.7 1716.9 229 1711.8 234.4 1708.5 236.3 1701 236 1693.1 235.6 1683.1 230.9 1679 224 1676.2 219.3 1677.1 215.8 1681.1 212.2 1682.4 210.9 1684 209.7 1686 209.6 1689 209.4 1691.6 212.5 1697 214 Z M 1461 101 C 1461.6 111.5 1466.1 107 1479 106 1479 106 1484.4 134 1484.4 134 1484.4 134 1487.7 156 1487.7 156 1491.1 181.8 1491 204.2 1491 230 1491 230 1471 230 1471 230 1471 230 1470 236 1470 236 1475.4 237.5 1495 237.4 1501 236.7 1501 236.7 1516 234 1516 234 1515.4 223.8 1511.2 227.6 1499 230 1499 230 1501 189 1501 189 1501 189 1501.9 179 1501.9 179 1501.9 179 1502.8 164 1502.8 164 1502.8 164 1503.5 153 1503.5 153 1505.1 146.3 1513.2 130.6 1517.5 125 1523.7 117 1531.7 108.7 1542 106.5 1567 101.2 1585 132.6 1585 154 1585 174.1 1585.3 205.9 1571.7 222 1568.3 225.9 1564.3 229.1 1559 229.8 1548.2 231.2 1541.3 223.5 1544.7 213 1546.8 206 1555.6 200.4 1556 213 1556 213 1549 213 1549 213 1549.3 214.5 1549.2 215.9 1550.6 217 1555.2 220.6 1571.5 217.2 1566.3 205.2 1564.2 200.5 1558.4 200.1 1554 200 1544.2 199.9 1532.7 203.3 1532 215 1531.7 221.1 1533 224.4 1537.2 229 1546.5 239.1 1559.7 239.5 1571 232.5 1588.7 221.6 1604.8 188.8 1604.8 168 1604.8 168 1604.8 149 1604.8 149 1601.9 132 1592 117.8 1578 108 1570.3 102.7 1561.5 99.1 1552 99.2 1548.4 99 1542.4 98.8 1539 99.2 1525.8 102 1514.8 113.6 1508.8 125 1506.3 129.6 1504 133.9 1503 139 1503 139 1504 104 1504 104 1504 104 1504 88 1504 88 1489.3 92 1478.7 100.2 1461 101 Z M 1049 139 C 1049 139 1042 139 1042 139 1043.1 125 1057.2 133.1 1054.3 143 1051.2 153.9 1036.8 162.2 1030.2 149 1027 142.8 1029.9 127.4 1032.5 121 1034.2 116.8 1036.8 112.3 1040.1 109.2 1047.3 102.5 1062.7 98.7 1071 105.4 1078.4 111.4 1080.9 124.8 1081 134 1081.2 149.2 1081.1 157.3 1075.6 172 1074.3 175.4 1072 182.1 1068.8 184 1067 185 1054.7 186 1052 186 1039.3 186.1 1028.7 186.4 1019 196 1016.5 198.6 1014.2 201.4 1013.3 205 1012.9 207.2 1012.9 213.7 1013.3 216 1013.6 218.5 1014.6 220.9 1016 223 1027.1 239.9 1049.4 230.2 1062 221 1062 221 1062 239 1062 239 1062 239 1068 239 1068 239 1068 221 1072.5 204 1080.8 188 1088.5 173.1 1100.8 157.6 1101 140 1101.2 124.6 1101.1 110.8 1088.9 99.2 1078.5 89.3 1062.4 88.6 1050 94.8 1036.5 101.6 1021.7 119 1018.5 134 1017.9 136.9 1018 140.1 1018 143 1018.2 156.5 1026.5 161.3 1039 161 1051.9 160.7 1066.7 148.6 1066 135 1065.1 120.5 1044.1 123.6 1041 125.2 1038.6 126.4 1036.7 128.5 1035.7 131 1034.7 133.8 1034.6 139.3 1036.6 141.7 1039.1 144.7 1046.8 146 1049 139 Z M 152 103 C 152 103 152 110 152 110 152 110 168 110 168 110 168 110 169.8 135 169.8 135 169.8 135 172 176 172 176 172 176 173 191 173 191 173 191 173 233 173 233 173 233 155 233 155 233 155 233 155 242 155 242 155 242 181 239 181 239 181 239 204 239 204 239 211.5 238.9 211 236.7 211 230 211 230 181 232 181 232 181 232 183 179 183 179 183 179 184 163 184 163 184 163 185.9 137 185.9 137 185.9 137 185.9 127 185.9 127 185.9 127 187 119 187 119 187 119 188.6 109.7 188.6 109.7 188.6 109.7 200 106 200 106 200 106 200 99 200 99 200 99 171 103 171 103 171 103 152 103 152 103 Z M 550 202 C 549.7 204.9 549.2 208.3 545.9 209.3 542.2 210.5 538.1 206.8 539.8 202 541.3 197.5 545.6 196 550 196.1 560.3 196.2 572.1 205.9 566.5 217 562.5 225.2 551.9 230.8 543 231 525.6 231.4 512.5 219.8 504.8 205 495.2 186.6 496.4 158.5 502.1 139 506.7 123.5 519 105.2 537 106 562 107.1 576.6 149.2 554 161.6 549.3 164.2 545.1 164.1 540 164 532.6 163.9 521.2 160.9 516.4 154.9 511.8 149.2 514.8 139.8 519.1 138.2 522.2 137 525.2 140 525.5 143 525.8 147.2 520.7 148.8 521.7 151.8 522.9 155.3 529.8 153.9 532 152.4 538.6 147.9 539.8 136.2 529 132.8 517.1 129.1 503.3 135.6 503 149 502.9 151.7 502.9 154.6 504.2 157 508.8 166.2 522.6 168.9 532 169 545.2 169.2 556.3 170 568 162.4 584.4 151.9 589.2 130.7 574.8 116.2 568.2 109.5 556.4 102.7 547 101.2 547 101.2 534 101.2 534 101.2 504.7 101.3 476.1 137.9 476 166 475.9 178.9 475.4 184.6 480.4 197 487.5 214.5 506.6 231.8 525 236.5 532 238.3 536.9 238.1 544 238 554 237.9 566.6 232.7 572 224 574.5 220 574.9 216.6 575 212 575.1 201.2 572.3 192.1 561 188 554.2 185.5 543.3 186.7 538.2 192.1 531.9 198.9 532 213.2 541 217.8 545.5 220.1 552.2 219 555.3 214.8 557.3 212 558 205.2 554.7 203 553.3 202.1 551.6 202.1 550 202 Z M 961 202 C 960.7 204.9 960.2 208.3 956.9 209.3 953.2 210.5 949.1 206.8 950.8 202 952.3 197.5 956.6 196 961 196.1 971.3 196.2 983.1 205.9 977.5 217 973.5 225.2 962.9 230.8 954 231 936.6 231.4 923.5 219.8 915.8 205 906.2 186.6 907.4 158.5 913.1 139 917.7 123.5 930 105.2 948 106 973 107.1 987.6 149.2 965 161.6 960.3 164.2 956.1 164.1 951 164 943.6 163.9 932.2 160.9 927.4 154.9 922.8 149.2 925.8 139.8 930.1 138.2 933.2 137 936.2 140 936.5 143 936.8 147.2 931.7 148.8 932.7 151.8 933.9 155.3 940.8 153.9 943 152.4 949.6 147.9 950.8 136.2 940 132.8 928.1 129.1 914.3 135.6 914 149 914 151.7 914 154.6 915.2 157 919.8 166.2 933.6 168.9 943 169 956.2 169.2 967.3 170 979 162.4 995.4 151.9 1000.2 130.7 985.8 116.2 979.2 109.5 967.4 102.7 958 101.2 958 101.2 945 101.2 945 101.2 915.7 101.3 887.1 137.9 887 166 886.9 178.9 886.4 184.6 891.5 197 898.5 214.5 917.6 231.8 936 236.5 943 238.3 947.9 238.1 955 238 965 237.9 977.6 232.7 983 224 985.5 220 985.9 216.6 986 212 986.1 201.2 983.3 192.1 972 188 965.2 185.5 954.3 186.7 949.2 192.1 942.9 198.9 943 213.2 952 217.8 956.5 220.1 963.2 219 966.3 214.8 968.3 212 969 205.2 965.7 203 964.3 202.1 962.6 202.1 961 202 Z M 1422 202 C 1421.7 204.9 1421.2 208.3 1417.9 209.3 1414.2 210.5 1410.1 206.8 1411.8 202 1413.3 197.5 1417.6 196 1422 196.1 1432.3 196.2 1444.1 205.9 1438.5 217 1434.5 225.2 1423.9 230.8 1415 231 1397.6 231.4 1384.5 219.8 1376.8 205 1367.2 186.6 1368.4 158.5 1374.1 139 1378.7 123.5 1391 105.2 1409 106 1434 107.1 1448.6 149.2 1426 161.6 1421.3 164.2 1417.1 164.1 1412 164 1404.6 163.9 1393.2 160.9 1388.4 154.9 1383.8 149.2 1386.8 139.8 1391.1 138.2 1394.2 137 1397.2 140 1397.5 143 1397.8 147.2 1392.7 148.8 1393.7 151.8 1394.9 155.3 1401.8 153.9 1404 152.4 1410.6 147.9 1411.8 136.2 1401 132.8 1389.1 129.1 1375.3 135.6 1375 149 1375 151.7 1375 154.6 1376.2 157 1380.8 166.2 1394.6 168.9 1404 169 1417.2 169.2 1428.3 170 1440 162.4 1456.4 151.9 1461.2 130.7 1446.8 116.2 1440.2 109.5 1428.4 102.7 1419 101.2 1419 101.2 1406 101.2 1406 101.2 1376.7 101.3 1348.1 137.9 1348 166 1347.9 178.9 1347.4 184.6 1352.5 197 1359.5 214.5 1378.6 231.8 1397 236.5 1404 238.3 1408.9 238.1 1416 238 1426 237.9 1438.6 232.7 1444 224 1446.5 220 1446.9 216.6 1447 212 1447.1 201.2 1444.3 192.1 1433 188 1426.2 185.5 1415.3 186.7 1410.2 192.1 1403.8 198.9 1404 213.2 1413 217.8 1417.5 220.1 1424.2 219 1427.3 214.8 1429.3 212 1430 205.2 1426.7 203 1425.3 202.1 1423.6 202.1 1422 202 Z M 1068 192 C 1067.2 196.2 1064.1 209.9 1062.2 212.9 1060.3 215.7 1055.9 218.9 1053 220.6 1048.4 223.2 1040.6 224.6 1036.4 220.6 1029.1 213.7 1034 201.6 1041 196.7 1047.5 192.1 1060.2 192 1068 192 Z" class="style0"/></svg>
